[img]http://img20.imageshack.us/img20/8364/thepaperboy.jpg[/img]

[b][size=200][color=black]PLOT[/color][/size][/b]

[code]A reporter returns to his Florida hometown to investigate 
a case involving a death row inmate.[/code]

[b][size=200][color=black]IMDB[/color][/size][/b]

[code]http://www.imdb.com/title/tt1496422/[/code]

[b][size=200][color=black]MOVIE INFO[/color][/size][/b]

[code]The Paperboy [2012] BRRip x264 AAC-V3nom

Format                                   : MPEG-4
Format profile                           : Base Media / Version 2
Codec ID                                 : mp42
File size                                : 348 MiB
Duration                                 : 1h 46mn
Overall bit rate mode                    : Variable
Overall bit rate                         : 456 Kbps
Encoded date                             : UTC 2013-01-11 09:48:18
Tagged date                              : UTC 2013-01-11 10:36:44

Video
ID                                       : 1
Format                                   : AVC
Format/Info                              : Advanced Video Codec
Format profile                           : Main@L2.1
Format settings, CABAC                   : Yes
Format settings, ReFrames                : 4 frames
Codec ID                                 : avc1
Codec ID/Info                            : Advanced Video Coding
Duration                                 : 1h 46mn
Bit rate mode                            : Variable
Bit rate                                 : 326 Kbps
Width                                    : 640 pixels
Height                                   : 272 pixels
Display aspect ratio                     : 2.40:1
Original display aspect ratio            : 2.40:1
Frame rate mode                          : Variable
Frame rate                               : 23.976 fps
Minimum frame rate                       : 5.994 fps
Maximum frame rate                       : 23.981 fps
Color space                              : YUV
Chroma subsampling                       : 4:2:0
Bit depth                                : 8 bits
Scan type                                : Progressive
Bits/(Pixel*Frame)                       : 0.078
Stream size                              : 247 MiB (71%)
Writing library                          : x264 core 112

Audio
ID                                       : 2
Format                                   : AAC
Format/Info                              : Advanced Audio Codec
Format profile                           : LC
Codec ID                                 : 40
Duration                                 : 1h 46mn
Bit rate mode                            : Variable
Bit rate                                 : 128 Kbps
Maximum bit rate                         : 199 Kbps
Channel(s)                               : 2 channels
Channel positions                        : Front: L R
Sampling rate                            : 48.0 KHz
Compression mode                         : Lossy
Delay relative to video                  : 209ms
Stream size                              : 97.7 MiB (28%)
Language                                 : English
Encoded date                             : UTC 2013-01-11 09:48:18
Tagged date                              : UTC 2013-01-11 10:36:39[/code]

[b][size=200][color=black]SOURCE[/color][/size][/b]

[code]The Paperboy (2012) 720p BrRip x264 - YIFY(Thanks)[/code]

[b][size=200][color=black]SCREENSHOTS[/color][/size][/b]

[img]http://img593.imageshack.us/img593/2410/thepaperboy2012brripx26.jpg[/img]

[img]http://kastatic.com/i2/users/133df62bbf28e62494bb17fe11078f1a.gif[/img][img]http://kastatic.com/i2/users/133df62bbf28e62494bb17fe11078f1a.gif[/img]